<?xml version="1.0" encoding="UTF-8"?>
<!DOCTYPE svg PUBLIC "-//W3C//DTD SVG 1.1//EN" "http://www.w3.org/Graphics/SVG/1.1/DTD/svg11.dtd">
<!-- Creator: CorelDRAW 2020 (64 Bit) -->
<svg xmlns="http://www.w3.org/2000/svg" xml:space="preserve" width="1.21918cm" height="1.21918cm" version="1.1" style="shape-rendering:geometricPrecision; text-rendering:geometricPrecision; image-rendering:optimizeQuality; fill-rule:evenodd; clip-rule:evenodd"
viewBox="0 0 1219.18 1219.18"
 xmlns:xlink="http://www.w3.org/1999/xlink"
 xmlns:xodm="http://www.corel.com/coreldraw/odm/2003">
 <defs>
  <style type="text/css">
   <![CDATA[
    .str0 {stroke:#27272A;stroke-width:7.62;stroke-miterlimit:22.9256}
    .str1 {stroke:#6D28D9;stroke-width:7.62;stroke-miterlimit:22.9256}
    .str2 {stroke:#7C3AED;stroke-width:7.62;stroke-miterlimit:22.9256}
    .str3 {stroke:#8B5CF6;stroke-width:7.62;stroke-miterlimit:22.9256}
    .str4 {stroke:#A78BFA;stroke-width:7.62;stroke-miterlimit:22.9256}
    .str5 {stroke:#C4B5FD;stroke-width:7.62;stroke-miterlimit:22.9256}
    .fil7 {fill:none}
    .fil1 {fill:#18181B;fill-rule:nonzero}
    .fil2 {fill:#4C1D95;fill-rule:nonzero}
    .fil3 {fill:#5B21B6;fill-rule:nonzero}
    .fil4 {fill:#6D28D9;fill-rule:nonzero}
    .fil5 {fill:#7C3AED;fill-rule:nonzero}
    .fil6 {fill:#8B5CF6;fill-rule:nonzero}
    .fil0 {fill:white;fill-rule:nonzero}
   ]]>
  </style>
   <clipPath id="id0">
    <path d="M-0.01 0l1219.19 0 0 1219.19 -1219.19 0 0 -1219.19z"/>
   </clipPath>
 </defs>
 <g id="Camada_x0020_1">
  <metadata id="CorelCorpID_0Corel-Layer"/>
  <g>
  </g>
  <g style="clip-path:url(#id0)">
   <g>
    <g id="_2295116627152">
     <path class="fil0" d="M139.61 758.87l0 111.05 -62 0 0 -259.63 59.97 0 0 100.65 2.15 0c4.4,-12 11.58,-21.38 21.55,-28.14 10.06,-6.76 22.36,-10.14 36.9,-10.14 13.69,0 25.61,3.04 35.75,9.13 10.14,6 18,14.49 23.58,25.48 5.66,10.99 8.45,23.83 8.37,38.54l0 124.11 -62 0 0 -111.94c0.09,-10.82 -2.62,-19.27 -8.11,-25.35 -5.5,-6.09 -13.23,-9.13 -23.2,-9.13 -6.51,0 -12.26,1.43 -17.24,4.31 -4.91,2.79 -8.75,6.8 -11.54,12.04 -2.7,5.24 -4.1,11.58 -4.18,19.02zm219.86 114.35c-12.42,0 -23.46,-2.07 -33.09,-6.21 -9.55,-4.23 -17.12,-10.57 -22.69,-19.02 -5.5,-8.54 -8.24,-19.23 -8.24,-32.07 0,-10.82 1.9,-19.95 5.7,-27.39 3.81,-7.44 9.05,-13.48 15.72,-18.13 6.68,-4.65 14.37,-8.15 23.07,-10.52 8.71,-2.45 18.01,-4.1 27.9,-4.94 11.07,-1.02 19.98,-2.07 26.75,-3.17 6.76,-1.19 11.66,-2.83 14.7,-4.94 3.13,-2.2 4.69,-5.29 4.69,-9.26l0 -0.63c0,-6.51 -2.24,-11.54 -6.72,-15.09 -4.48,-3.55 -10.52,-5.33 -18.13,-5.33 -8.19,0 -14.79,1.78 -19.77,5.33 -4.99,3.55 -8.16,8.45 -9.51,14.71l-57.18 -2.03c1.69,-11.83 6.05,-22.4 13.06,-31.7 7.1,-9.38 16.82,-16.73 29.16,-22.06 12.42,-5.4 27.34,-8.11 44.75,-8.11 12.43,0 23.88,1.48 34.36,4.44 10.48,2.87 19.6,7.1 27.38,12.68 7.78,5.49 13.78,12.25 18,20.28 4.31,8.03 6.47,17.2 6.47,27.51l0 132.35 -58.32 0 0 -27.13 -1.52 0c-3.46,6.6 -7.9,12.17 -13.31,16.74 -5.33,4.56 -11.62,7.98 -18.89,10.27 -7.18,2.28 -15.3,3.42 -24.34,3.42zm19.14 -40.57c6.68,0 12.68,-1.35 18.01,-4.05 5.4,-2.71 9.71,-6.43 12.93,-11.16 3.21,-4.82 4.81,-10.4 4.81,-16.74l0 -18.51c-1.77,0.93 -3.93,1.78 -6.46,2.54 -2.46,0.76 -5.16,1.48 -8.12,2.16 -2.95,0.67 -6,1.26 -9.12,1.77 -3.13,0.51 -6.13,0.97 -9.01,1.4 -5.83,0.92 -10.81,2.36 -14.96,4.31 -4.05,1.94 -7.18,4.47 -9.38,7.6 -2.11,3.04 -3.17,6.68 -3.17,10.9 0,6.43 2.29,11.33 6.85,14.71 4.65,3.38 10.52,5.07 17.62,5.07zm135.14 37.27l0 -259.63 62 0 0 98.25 1.27 0c2.53,-5.92 6.12,-11.62 10.77,-17.12 4.73,-5.49 10.74,-9.97 18.01,-13.43 7.35,-3.55 16.14,-5.33 26.36,-5.33 13.53,0 26.16,3.55 37.91,10.65 11.83,7.1 21.38,18.04 28.65,32.84 7.27,14.78 10.9,33.63 10.9,56.54 0,22.05 -3.5,40.52 -10.52,55.4 -6.93,14.87 -16.31,26.03 -28.14,33.47 -11.75,7.43 -24.81,11.15 -39.18,11.15 -9.8,0 -18.29,-1.6 -25.48,-4.81 -7.18,-3.22 -13.23,-7.44 -18.13,-12.68 -4.81,-5.24 -8.53,-10.86 -11.15,-16.86l-1.9 0 0 31.56 -61.37 0zm60.73 -97.36c0,10.48 1.39,19.61 4.18,27.38 2.88,7.78 6.98,13.82 12.3,18.13 5.41,4.23 11.88,6.34 19.4,6.34 7.6,0 14.07,-2.11 19.39,-6.34 5.33,-4.31 9.35,-10.35 12.05,-18.13 2.79,-7.77 4.18,-16.9 4.18,-27.38 0,-10.48 -1.39,-19.57 -4.18,-27.26 -2.7,-7.69 -6.72,-13.65 -12.05,-17.87 -5.24,-4.23 -11.7,-6.34 -19.39,-6.34 -7.61,0 -14.07,2.07 -19.4,6.21 -5.32,4.14 -9.42,10.06 -12.3,17.75 -2.79,7.69 -4.18,16.86 -4.18,27.51zm167.63 97.36l0 -194.73 61.99 0 0 194.73 -61.99 0zm31.06 -217.42c-8.71,0 -16.19,-2.87 -22.44,-8.62 -6.25,-5.83 -9.38,-12.84 -9.38,-21.04 0,-8.12 3.13,-15.05 9.38,-20.79 6.25,-5.83 13.73,-8.75 22.44,-8.75 8.79,0 16.27,2.92 22.44,8.75 6.26,5.74 9.38,12.67 9.38,20.79 0,8.2 -3.12,15.21 -9.38,21.04 -6.17,5.75 -13.65,8.62 -22.44,8.62zm180.31 22.69l0 45.64 -122.85 0 0 -45.64 122.85 0zm-97.11 -46.65l61.99 0 0 180.15c0,3.8 0.59,6.89 1.78,9.25 1.26,2.29 3.08,3.94 5.45,4.95 2.36,0.93 5.2,1.39 8.49,1.39 2.37,0 4.86,-0.21 7.49,-0.63 2.69,-0.51 4.72,-0.93 6.08,-1.27l9.38 44.75c-2.96,0.85 -7.14,1.91 -12.55,3.17 -5.33,1.27 -11.71,2.07 -19.15,2.41 -14.53,0.68 -27,-1.01 -37.4,-5.07 -10.31,-4.14 -18.21,-10.56 -23.7,-19.27 -5.41,-8.7 -8.03,-19.65 -7.86,-32.83l0 -187zm296.31 106.11l-56.93 1.52c-0.59,-4.05 -2.19,-7.64 -4.82,-10.77 -2.62,-3.21 -6.04,-5.71 -10.26,-7.48 -4.14,-1.86 -8.96,-2.79 -14.46,-2.79 -7.18,0 -13.3,1.44 -18.38,4.31 -4.99,2.87 -7.44,6.76 -7.36,11.66 -0.08,3.81 1.44,7.1 4.57,9.89 3.22,2.79 8.92,5.03 17.12,6.72l37.52 7.1c19.44,3.72 33.89,9.89 43.36,18.51 9.55,8.62 14.37,20.03 14.45,34.23 -0.08,13.35 -4.05,24.98 -11.91,34.86 -7.78,9.89 -18.43,17.58 -31.95,23.08 -13.53,5.41 -28.99,8.11 -46.4,8.11 -27.81,0 -49.74,-5.7 -65.8,-17.11 -15.97,-11.5 -25.1,-26.88 -27.39,-46.15l61.24 -1.52c1.35,7.1 4.86,12.51 10.52,16.22 5.67,3.72 12.89,5.58 21.68,5.58 7.94,0 14.41,-1.48 19.4,-4.43 4.98,-2.96 7.52,-6.89 7.61,-11.79 -0.09,-4.4 -2.03,-7.91 -5.83,-10.53 -3.81,-2.7 -9.77,-4.81 -17.88,-6.34l-33.98 -6.46c-19.52,-3.55 -34.06,-10.1 -43.61,-19.65 -9.55,-9.64 -14.28,-21.89 -14.2,-36.77 -0.08,-13.01 3.38,-24.13 10.4,-33.34 7.01,-9.29 16.98,-16.4 29.92,-21.3 12.93,-4.9 28.18,-7.35 45.76,-7.35 26.37,0 47.16,5.54 62.37,16.61 15.22,10.98 23.63,26.11 25.24,45.38z"/>
     <path class="fil1 str0" d="M87.71 345.58l59.5 0c14.38,0 26.04,11.65 26.04,26.03l-0.01 59.5c0.01,14.37 -11.65,26.03 -26.02,26.03l-59.51 0c-14.37,0 -26.02,-11.66 -26.02,-26.03l-0.01 -59.5c0.01,-14.38 11.66,-26.03 26.04,-26.03z"/>
     <path class="fil2 str1" d="M236.46 345.58l59.5 0c14.38,0 26.04,11.65 26.04,26.03l0 59.5c0,14.37 -11.66,26.03 -26.03,26.03l-59.51 0c-14.37,0 -26.02,-11.66 -26.02,-26.03l-0.01 -59.5c0.01,-14.38 11.66,-26.03 26.04,-26.03z"/>
     <path class="fil3 str2" d="M385.21 345.58l59.5 0c14.38,0 26.04,11.65 26.04,26.03l-0.01 59.5c0.01,14.37 -11.65,26.03 -26.02,26.03l-59.51 0c-14.37,0 -26.02,-11.66 -26.02,-26.03l-0.01 -59.5c0.01,-14.38 11.66,-26.03 26.04,-26.03z"/>
     <path class="fil4 str3" d="M533.97 345.58l59.5 0c14.37,0 26.03,11.65 26.03,26.03l0 59.5c0,14.37 -11.66,26.03 -26.03,26.03l-59.5 0c-14.37,0 -26.03,-11.66 -26.03,-26.03l-0.01 -59.5c0.01,-14.38 11.67,-26.03 26.04,-26.03z"/>
     <path class="fil5 str4" d="M682.72 345.58l59.5 0c14.37,0 26.03,11.65 26.03,26.03l0 59.5c0,14.37 -11.66,26.03 -26.03,26.03l-59.5 0c-14.38,0 -26.03,-11.66 -26.03,-26.03l-0.01 -59.5c0.01,-14.38 11.66,-26.03 26.04,-26.03z"/>
     <path class="fil6 str5" d="M831.47 345.58l59.5 0c14.37,0 26.03,11.65 26.03,26.03l0 59.5c0,14.37 -11.66,26.03 -26.03,26.03l-59.5 0c-14.38,0 -26.03,-11.66 -26.03,-26.03l0 -59.5c0,-14.38 11.65,-26.03 26.03,-26.03z"/>
    </g>
   </g>
  </g>
  <polygon class="fil7" points="-0.01,0 1219.18,0 1219.18,1219.19 -0.01,1219.19 "/>
 </g>
</svg>
